<svg width="24" height="22" viewBox="0 0 24 22" fill="none" xmlns="http://www.w3.org/2000/svg">
<path d="M10.2633 1.34505C10.8099 -0.337348 13.1901 -0.337345 13.7367 1.34505L15.1822 5.79393C15.4267 6.54632 16.1278 7.05573 16.919 7.05573H21.5968C23.3658 7.05573 24.1013 9.31937 22.6701 10.3591L18.8857 13.1087C18.2457 13.5737 17.9779 14.3979 18.2223 15.1503L19.6679 19.5992C20.2145 21.2816 18.2889 22.6806 16.8578 21.6408L13.0733 18.8913C12.4333 18.4263 11.5667 18.4263 10.9267 18.8913L7.1422 21.6409C5.71107 22.6806 3.78551 21.2816 4.33215 19.5992L5.77768 15.1503C6.02214 14.398 5.75433 13.5737 5.11431 13.1087L1.32986 10.3591C-0.101266 9.31937 0.63424 7.05573 2.40321 7.05573H7.08105C7.87216 7.05573 8.57329 6.54632 8.81776 5.79393L10.2633 1.34505Z" fill="#FFA100"/>
</svg>
