<svg width="50" height="50" viewBox="0 0 50 50" fill="none" xmlns="http://www.w3.org/2000/svg">
<circle cx="25" cy="25" r="25" fill="white"/>
<path d="M40.8592 18.8681C40.7841 17.2019 40.5149 16.0619 40.1331 15.066C39.7324 14.0387 39.2003 13.1618 38.3302 12.2974C37.4601 11.433 36.5899 10.888 35.5633 10.4934C34.5679 10.1051 33.4286 9.84197 31.7634 9.76681C30.092 9.69164 29.5599 9.67285 25.3156 9.67285C21.0651 9.67285 20.533 9.69164 18.8678 9.76681C17.2027 9.84197 16.0633 10.1113 15.068 10.4934C14.0351 10.8943 13.1587 11.4267 12.2948 12.2974C11.4309 13.168 10.8863 14.0387 10.4919 15.066C10.1101 16.0619 9.8409 17.2019 9.76578 18.8681C9.69066 20.5405 9.67188 21.0729 9.67188 25.3197C9.67188 29.5728 9.69066 30.1053 9.76578 31.7714C9.8409 33.4376 10.1101 34.5776 10.4919 35.5735C10.8926 36.6008 11.4247 37.4777 12.2948 38.3421C13.1587 39.2128 14.0351 39.7515 15.0617 40.1461C16.0571 40.5344 17.1964 40.7975 18.8616 40.8727C20.533 40.9478 21.0651 40.9666 25.3094 40.9666C29.5599 40.9666 30.092 40.9478 31.7572 40.8727C33.4223 40.7975 34.5617 40.5282 35.557 40.1461C36.5837 39.7452 37.4601 39.2128 38.3239 38.3421C39.1878 37.4715 39.7324 36.6008 40.1268 35.5735C40.5149 34.5776 40.7779 33.4376 40.853 31.7714C40.9281 30.099 40.9469 29.5666 40.9469 25.3197C40.9469 21.0729 40.9344 20.5342 40.8592 18.8681ZM38.0485 31.6461C37.9796 33.1745 37.723 34.0076 37.5101 34.5525C37.2284 35.2791 36.8841 35.8053 36.3333 36.3565C35.7824 36.9077 35.2628 37.2397 34.5304 37.5341C33.9795 37.7471 33.1469 38.0039 31.6257 38.0728C29.9793 38.1479 29.4848 38.1667 25.3031 38.1667C21.1214 38.1667 20.6269 38.1479 18.9805 38.0728C17.4531 38.0039 16.6205 37.7471 16.0759 37.5341C15.3497 37.2522 14.8239 36.9077 14.273 36.3565C13.7221 35.8053 13.3903 35.2854 13.0961 34.5525C12.8833 34.0013 12.6266 33.1682 12.5577 31.6461C12.4826 29.9988 12.4638 29.5039 12.4638 25.3197C12.4638 21.1355 12.4826 20.6407 12.5577 18.9933C12.6266 17.465 12.8833 16.6319 13.0961 16.0869C13.3778 15.3604 13.7221 14.8342 14.273 14.283C14.8239 13.7318 15.3434 13.3998 16.0759 13.1054C16.6267 12.8924 17.4593 12.6356 18.9805 12.5667C20.6269 12.4915 21.1214 12.4728 25.3031 12.4728C29.4848 12.4728 29.9793 12.4915 31.6257 12.5667C33.1532 12.6356 33.9858 12.8924 34.5304 13.1054C35.2565 13.3873 35.7824 13.7318 36.3333 14.283C36.8841 14.8342 37.2159 15.3541 37.5101 16.0869C37.723 16.6382 37.9796 17.4712 38.0485 18.9933C38.1236 20.6407 38.1424 21.1355 38.1424 25.3197C38.1424 29.5039 38.1174 29.9988 38.0485 31.6461Z" fill="#070127"/>
<path d="M25.3015 17.2769C20.8569 17.2769 17.2637 20.8785 17.2637 25.3195C17.2637 29.7668 20.8632 33.3622 25.3015 33.3622C29.7399 33.3622 33.3394 29.7543 33.3394 25.3195C33.3394 20.8723 29.7461 17.2769 25.3015 17.2769ZM25.3015 30.5373C22.4219 30.5373 20.0869 28.2009 20.0869 25.3195C20.0869 22.4382 22.4219 20.1018 25.3015 20.1018C28.1811 20.1018 30.5161 22.4382 30.5161 25.3195C30.5161 28.2009 28.1811 30.5373 25.3015 30.5373Z" fill="#070127"/>
<path d="M33.6534 18.8427C34.6906 18.8427 35.5314 18.0014 35.5314 16.9636C35.5314 15.9258 34.6906 15.0845 33.6534 15.0845C32.6162 15.0845 31.7754 15.9258 31.7754 16.9636C31.7754 18.0014 32.6162 18.8427 33.6534 18.8427Z" fill="#070127"/>
</svg>
