<svg width="138" height="64" viewBox="0 0 138 64" fill="none" xmlns="http://www.w3.org/2000/svg">
<circle cx="32" cy="32" r="32" fill="white"/>
<path d="M78.9575 41V24.2H81.3575V38.912H90.4535V41H78.9575ZM98.1554 41.144C96.8754 41.144 95.7394 40.864 94.7474 40.304C93.7554 39.744 92.9714 38.976 92.3954 38C91.8194 37.008 91.5314 35.888 91.5314 34.64C91.5314 33.376 91.8194 32.256 92.3954 31.28C92.9714 30.304 93.7554 29.544 94.7474 29C95.7394 28.44 96.8754 28.16 98.1554 28.16C99.4194 28.16 100.547 28.44 101.539 29C102.547 29.544 103.331 30.304 103.891 31.28C104.467 32.24 104.755 33.36 104.755 34.64C104.755 35.904 104.467 37.024 103.891 38C103.331 38.976 102.547 39.744 101.539 40.304C100.547 40.864 99.4194 41.144 98.1554 41.144ZM98.1554 39.128C98.9714 39.128 99.6994 38.944 100.339 38.576C100.995 38.208 101.507 37.688 101.875 37.016C102.243 36.328 102.427 35.536 102.427 34.64C102.427 33.728 102.243 32.944 101.875 32.288C101.507 31.616 100.995 31.096 100.339 30.728C99.6994 30.36 98.9714 30.176 98.1554 30.176C97.3394 30.176 96.6114 30.36 95.9714 30.728C95.3314 31.096 94.8194 31.616 94.4354 32.288C94.0514 32.944 93.8594 33.728 93.8594 34.64C93.8594 35.536 94.0514 36.328 94.4354 37.016C94.8194 37.688 95.3314 38.208 95.9714 38.576C96.6114 38.944 97.3394 39.128 98.1554 39.128ZM113.51 45.8C112.342 45.8 111.206 45.632 110.102 45.296C109.014 44.976 108.126 44.512 107.438 43.904L108.542 42.128C109.134 42.64 109.862 43.04 110.726 43.328C111.59 43.632 112.494 43.784 113.438 43.784C114.942 43.784 116.046 43.432 116.75 42.728C117.454 42.024 117.806 40.952 117.806 39.512V36.824L118.046 34.304L117.926 31.76V28.28H120.11V39.272C120.11 41.512 119.55 43.16 118.43 44.216C117.31 45.272 115.67 45.8 113.51 45.8ZM113.222 40.472C111.99 40.472 110.886 40.216 109.91 39.704C108.95 39.176 108.182 38.448 107.606 37.52C107.046 36.592 106.766 35.52 106.766 34.304C106.766 33.072 107.046 32 107.606 31.088C108.182 30.16 108.95 29.44 109.91 28.928C110.886 28.416 111.99 28.16 113.222 28.16C114.31 28.16 115.302 28.384 116.198 28.832C117.094 29.264 117.806 29.936 118.334 30.848C118.878 31.76 119.15 32.912 119.15 34.304C119.15 35.68 118.878 36.824 118.334 37.736C117.806 38.648 117.094 39.336 116.198 39.8C115.302 40.248 114.31 40.472 113.222 40.472ZM113.486 38.456C114.334 38.456 115.086 38.28 115.742 37.928C116.398 37.576 116.91 37.088 117.278 36.464C117.662 35.84 117.854 35.12 117.854 34.304C117.854 33.488 117.662 32.768 117.278 32.144C116.91 31.52 116.398 31.04 115.742 30.704C115.086 30.352 114.334 30.176 113.486 30.176C112.638 30.176 111.878 30.352 111.206 30.704C110.55 31.04 110.03 31.52 109.646 32.144C109.278 32.768 109.094 33.488 109.094 34.304C109.094 35.12 109.278 35.84 109.646 36.464C110.03 37.088 110.55 37.576 111.206 37.928C111.878 38.28 112.638 38.456 113.486 38.456ZM129.96 41.144C128.68 41.144 127.544 40.864 126.552 40.304C125.56 39.744 124.776 38.976 124.2 38C123.624 37.008 123.336 35.888 123.336 34.64C123.336 33.376 123.624 32.256 124.2 31.28C124.776 30.304 125.56 29.544 126.552 29C127.544 28.44 128.68 28.16 129.96 28.16C131.224 28.16 132.352 28.44 133.344 29C134.352 29.544 135.136 30.304 135.696 31.28C136.272 32.24 136.56 33.36 136.56 34.64C136.56 35.904 136.272 37.024 135.696 38C135.136 38.976 134.352 39.744 133.344 40.304C132.352 40.864 131.224 41.144 129.96 41.144ZM129.96 39.128C130.776 39.128 131.504 38.944 132.144 38.576C132.8 38.208 133.312 37.688 133.68 37.016C134.048 36.328 134.232 35.536 134.232 34.64C134.232 33.728 134.048 32.944 133.68 32.288C133.312 31.616 132.8 31.096 132.144 30.728C131.504 30.36 130.776 30.176 129.96 30.176C129.144 30.176 128.416 30.36 127.776 30.728C127.136 31.096 126.624 31.616 126.24 32.288C125.856 32.944 125.664 33.728 125.664 34.64C125.664 35.536 125.856 36.328 126.24 37.016C126.624 37.688 127.136 38.208 127.776 38.576C128.416 38.944 129.144 39.128 129.96 39.128Z" fill="black"/>
</svg>
