<svg width="185" height="40" viewBox="0 0 185 40" fill="none" xmlns="http://www.w3.org/2000/svg">
<circle cx="20" cy="20" r="20" fill="#D9D9D9"/>
<circle cx="72" cy="20" r="20" fill="#D9D9D9"/>
<path d="M110.93 26.128C110.077 26.128 109.288 25.9893 108.562 25.712C107.848 25.424 107.224 25.024 106.69 24.512C106.168 23.9893 105.757 23.3813 105.458 22.688C105.16 21.9947 105.01 21.232 105.01 20.4C105.01 19.568 105.16 18.8053 105.458 18.112C105.757 17.4187 106.173 16.816 106.706 16.304C107.24 15.7813 107.864 15.3813 108.578 15.104C109.304 14.816 110.093 14.672 110.946 14.672C111.81 14.672 112.605 14.8213 113.33 15.12C114.066 15.408 114.69 15.84 115.202 16.416L114.162 17.424C113.736 16.976 113.256 16.6453 112.722 16.432C112.189 16.208 111.618 16.096 111.01 16.096C110.381 16.096 109.794 16.2027 109.25 16.416C108.717 16.6293 108.253 16.928 107.858 17.312C107.464 17.696 107.154 18.1547 106.93 18.688C106.717 19.2107 106.61 19.7813 106.61 20.4C106.61 21.0187 106.717 21.5947 106.93 22.128C107.154 22.6507 107.464 23.104 107.858 23.488C108.253 23.872 108.717 24.1707 109.25 24.384C109.794 24.5973 110.381 24.704 111.01 24.704C111.618 24.704 112.189 24.5973 112.722 24.384C113.256 24.16 113.736 23.8187 114.162 23.36L115.202 24.368C114.69 24.944 114.066 25.3813 113.33 25.68C112.605 25.9787 111.805 26.128 110.93 26.128ZM122.306 26.128C121.453 26.128 120.658 25.984 119.922 25.696C119.197 25.408 118.568 25.008 118.034 24.496C117.501 23.9733 117.085 23.3653 116.786 22.672C116.488 21.9787 116.338 21.2213 116.338 20.4C116.338 19.5787 116.488 18.8213 116.786 18.128C117.085 17.4347 117.501 16.832 118.034 16.32C118.568 15.7973 119.197 15.392 119.922 15.104C120.648 14.816 121.442 14.672 122.306 14.672C123.16 14.672 123.944 14.816 124.658 15.104C125.384 15.3813 126.013 15.7813 126.546 16.304C127.09 16.816 127.506 17.4187 127.794 18.112C128.093 18.8053 128.242 19.568 128.242 20.4C128.242 21.232 128.093 21.9947 127.794 22.688C127.506 23.3813 127.09 23.9893 126.546 24.512C126.013 25.024 125.384 25.424 124.658 25.712C123.944 25.9893 123.16 26.128 122.306 26.128ZM122.306 24.704C122.925 24.704 123.496 24.5973 124.018 24.384C124.552 24.1707 125.01 23.872 125.394 23.488C125.789 23.0933 126.093 22.6347 126.306 22.112C126.53 21.5893 126.642 21.0187 126.642 20.4C126.642 19.7813 126.53 19.2107 126.306 18.688C126.093 18.1653 125.789 17.712 125.394 17.328C125.01 16.9333 124.552 16.6293 124.018 16.416C123.496 16.2027 122.925 16.096 122.306 16.096C121.677 16.096 121.096 16.2027 120.562 16.416C120.04 16.6293 119.581 16.9333 119.186 17.328C118.792 17.712 118.482 18.1653 118.258 18.688C118.045 19.2107 117.938 19.7813 117.938 20.4C117.938 21.0187 118.045 21.5893 118.258 22.112C118.482 22.6347 118.792 23.0933 119.186 23.488C119.581 23.872 120.04 24.1707 120.562 24.384C121.096 24.5973 121.677 24.704 122.306 24.704ZM130.688 26V14.8H135.408C136.602 14.8 137.653 15.0347 138.56 15.504C139.477 15.9733 140.186 16.6293 140.688 17.472C141.2 18.3147 141.456 19.2907 141.456 20.4C141.456 21.5093 141.2 22.4853 140.688 23.328C140.186 24.1707 139.477 24.8267 138.56 25.296C137.653 25.7653 136.602 26 135.408 26H130.688ZM132.288 24.608H135.312C136.24 24.608 137.04 24.432 137.712 24.08C138.394 23.728 138.922 23.2373 139.296 22.608C139.669 21.968 139.856 21.232 139.856 20.4C139.856 19.5573 139.669 18.8213 139.296 18.192C138.922 17.5627 138.394 17.072 137.712 16.72C137.04 16.368 136.24 16.192 135.312 16.192H132.288V24.608ZM145.363 19.632H151.123V20.992H145.363V19.632ZM145.507 24.608H152.035V26H143.907V14.8H151.811V16.192H145.507V24.608ZM153.545 22.272V20.944H157.849V22.272H153.545ZM160.438 26V14.8H161.75L166.774 23.264H166.07L171.03 14.8H172.342L172.358 26H170.822L170.806 17.216H171.174L166.758 24.64H166.022L161.574 17.216H161.974V26H160.438ZM177.175 19.632H182.935V20.992H177.175V19.632ZM177.319 24.608H183.847V26H175.719V14.8H183.623V16.192H177.319V24.608Z" fill="black"/>
</svg>
