<svg width="24" height="22" viewBox="0 0 24 22" fill="none" xmlns="http://www.w3.org/2000/svg">
<path d="M10.7388 1.49955C11.1358 0.277818 12.8642 0.277817 13.2612 1.49956L14.7067 5.94844C15.0181 6.90684 15.9112 7.55573 16.919 7.55573H21.5968C22.8814 7.55573 23.4155 9.19956 22.3762 9.95464L18.5918 12.7042C17.7765 13.2965 17.4354 14.3464 17.7468 15.3048L19.1923 19.7537C19.5893 20.9755 18.191 21.9914 17.1517 21.2363L13.3672 18.4868C12.552 17.8945 11.448 17.8945 10.6328 18.4868L6.84831 21.2363C5.80904 21.9914 4.41071 20.9755 4.80768 19.7537L6.25321 15.3048C6.56461 14.3464 6.22347 13.2965 5.40821 12.7042L1.62376 9.95464C0.584486 9.19957 1.1186 7.55573 2.40321 7.55573H7.08105C8.08877 7.55573 8.98188 6.90684 9.29329 5.94844L10.7388 1.49955Z" stroke="#FFA100"/>
</svg>
