<svg width="50" height="50" viewBox="0 0 50 50" fill="none" xmlns="http://www.w3.org/2000/svg">
<circle cx="25" cy="25" r="25" fill="white"/>
<path fill-rule="evenodd" clip-rule="evenodd" d="M39.8825 24.9996C39.8825 33.2181 33.2201 39.8806 25.0016 39.8806C16.783 39.8806 10.1206 33.2181 10.1206 24.9996C10.1206 16.7811 16.783 10.1187 25.0016 10.1187C33.2201 10.1187 39.8825 16.7811 39.8825 24.9996ZM25.5348 21.1044C24.0874 21.7065 21.1947 22.9525 16.8566 24.8425C16.1521 25.1227 15.7831 25.3967 15.7495 25.6647C15.6927 26.1176 16.2599 26.2959 17.0321 26.5387C17.1372 26.5718 17.246 26.606 17.3576 26.6423C18.1174 26.8892 19.1395 27.1782 19.6708 27.1897C20.1528 27.2001 20.6907 27.0014 21.2846 26.5936C25.3378 23.8575 27.4301 22.4746 27.5614 22.4448C27.6541 22.4237 27.7825 22.3973 27.8695 22.4746C27.9566 22.552 27.948 22.6984 27.9388 22.7377C27.8826 22.9772 25.6565 25.0469 24.5044 26.1179C24.1453 26.4518 23.8905 26.6886 23.8384 26.7427C23.7218 26.8639 23.6029 26.9785 23.4886 27.0887C22.7827 27.7691 22.2534 28.2794 23.5179 29.1127C24.1256 29.5132 24.6118 29.8443 25.0969 30.1747C25.6267 30.5354 26.1552 30.8953 26.8389 31.3435C27.013 31.4576 27.1794 31.5762 27.3414 31.6918C27.958 32.1313 28.5119 32.5262 29.1962 32.4632C29.5938 32.4266 30.0046 32.0527 30.2132 30.9376C30.7062 28.3021 31.6752 22.592 31.8991 20.2389C31.9187 20.0328 31.8941 19.7689 31.8742 19.6531C31.8544 19.5373 31.813 19.3723 31.6625 19.2501C31.4842 19.1054 31.2089 19.0749 31.0858 19.0771C30.5261 19.087 29.6674 19.3856 25.5348 21.1044Z" fill="#070127"/>
</svg>
