<svg width="50" height="50" viewBox="0 0 50 50" fill="none" xmlns="http://www.w3.org/2000/svg">
<circle cx="25" cy="25" r="25" fill="white"/>
<path fill-rule="evenodd" clip-rule="evenodd" d="M36.5969 15.2002C37.8767 15.5441 38.8892 16.5565 39.233 17.8364C39.8634 20.1669 39.8825 24.9999 39.8825 24.9999C39.8825 24.9999 39.8825 29.8519 39.2521 32.1633C38.9083 33.4432 37.8958 34.4557 36.616 34.7995C34.3045 35.4299 25.0016 35.4299 25.0016 35.4299C25.0016 35.4299 15.6986 35.4299 13.3872 34.7995C12.1073 34.4557 11.0948 33.4432 10.751 32.1633C10.1206 29.8328 10.1206 24.9999 10.1206 24.9999C10.1206 24.9999 10.1206 20.1669 10.7319 17.8555C11.0757 16.5756 12.0882 15.5632 13.3681 15.2193C15.6795 14.5889 24.9825 14.5698 24.9825 14.5698C24.9825 14.5698 34.2854 14.5698 36.5969 15.2002ZM29.739 24.9999L22.0215 29.4699V20.5298L29.739 24.9999Z" fill="#070127"/>
</svg>
